<svg xmlns="http://www.w3.org/2000/svg" xmlns:xlink="http://www.w3.org/1999/xlink" width="500" zoomAndPan="magnify" viewBox="0 0 375 374.999991" height="500" preserveAspectRatio="xMidYMid meet" version="1.0"><defs><g/><clipPath id="bb7952e99e"><path d="M 19 164 L 123 164 L 123 227.234375 L 19 227.234375 Z M 19 164 " clip-rule="nonzero"/></clipPath><clipPath id="e13c687dec"><path d="M 56 147.734375 L 84 147.734375 L 84 175 L 56 175 Z M 56 147.734375 " clip-rule="nonzero"/></clipPath></defs><g fill="#ffffff" fill-opacity="1"><g transform="translate(140.414465, 225.123857)"><g><path d="M 49.046875 -34.328125 C 50.304688 -33.765625 51.566406 -32.632812 52.828125 -30.9375 C 55.335938 -27.601562 56.59375 -23.171875 56.59375 -17.640625 C 56.59375 -10.910156 53.671875 -5.941406 47.828125 -2.734375 C 44.867188 -1.160156 41.910156 -0.25 38.953125 0 L 5.65625 0 L 5.65625 -61.3125 L 34.046875 -61.3125 C 36.378906 -61.3125 38.863281 -60.804688 41.5 -59.796875 C 46.71875 -57.785156 50.050781 -54.296875 51.5 -49.328125 C 52.570312 -45.742188 52.476562 -42.160156 51.21875 -38.578125 C 50.59375 -36.816406 49.867188 -35.398438 49.046875 -34.328125 Z M 20.375 -49.90625 L 20.375 -36.21875 L 33.484375 -36.21875 C 35.367188 -36.21875 37.003906 -36.878906 38.390625 -38.203125 C 39.710938 -39.523438 40.375 -41.128906 40.375 -43.015625 C 40.375 -44.960938 39.710938 -46.597656 38.390625 -47.921875 C 37.003906 -49.242188 35.367188 -49.90625 33.484375 -49.90625 Z M 45.09375 -18.109375 C 45.09375 -19.992188 44.429688 -21.628906 43.109375 -23.015625 C 41.785156 -24.335938 40.179688 -25 38.296875 -25 L 20.375 -25 L 20.375 -11.3125 L 38.296875 -11.3125 C 40.179688 -11.3125 41.785156 -11.972656 43.109375 -13.296875 C 44.429688 -14.617188 45.09375 -16.222656 45.09375 -18.109375 Z M 45.09375 -18.109375 "/></g></g></g><g fill="#ffffff" fill-opacity="1"><g transform="translate(199.838848, 225.123857)"><g><path d="M 37.734375 -48.765625 L 50.9375 -48.765625 L 50.9375 0 L 37.734375 0 L 37.734375 -5.46875 C 35.023438 -1.945312 30.9375 -0.1875 25.46875 -0.1875 C 18.800781 -0.125 13.078125 -2.453125 8.296875 -7.171875 C 3.515625 -11.890625 1.09375 -17.613281 1.03125 -24.34375 C 0.96875 -31 3.296875 -36.71875 8.015625 -41.5 C 12.734375 -46.28125 18.457031 -48.703125 25.1875 -48.765625 C 30.71875 -48.765625 34.898438 -46.972656 37.734375 -43.390625 Z M 33.765625 -16.03125 C 36.097656 -18.363281 37.265625 -21.195312 37.265625 -24.53125 C 37.265625 -27.925781 36.066406 -30.753906 33.671875 -33.015625 C 31.285156 -35.398438 28.488281 -36.53125 25.28125 -36.40625 C 21.945312 -36.40625 19.117188 -35.242188 16.796875 -32.921875 C 14.460938 -30.597656 13.296875 -27.769531 13.296875 -24.4375 C 13.296875 -21.164062 14.492188 -18.332031 16.890625 -15.9375 C 19.210938 -13.613281 22.039062 -12.453125 25.375 -12.453125 C 28.769531 -12.578125 31.566406 -13.769531 33.765625 -16.03125 Z M 33.765625 -16.03125 "/></g></g></g><g fill="#ffffff" fill-opacity="1"><g transform="translate(253.603768, 225.123857)"><g><path d="M 40.84375 0 L 40.84375 -5.5625 C 36.3125 -1.851562 31.1875 0 25.46875 0 C 18.800781 0.0625 13.078125 -2.265625 8.296875 -6.984375 C 3.515625 -11.703125 1.09375 -17.421875 1.03125 -24.140625 C 0.96875 -30.804688 3.296875 -36.53125 8.015625 -41.3125 C 12.734375 -46.09375 18.457031 -48.515625 25.1875 -48.578125 C 31.03125 -48.578125 36.21875 -46.722656 40.75 -43.015625 L 40.75 -65.84375 L 53.953125 -65.84375 L 54.046875 0 Z M 33.859375 -15.84375 C 36.191406 -18.175781 37.359375 -21.007812 37.359375 -24.34375 C 37.234375 -27.738281 36.035156 -30.566406 33.765625 -32.828125 C 31.378906 -35.085938 28.550781 -36.21875 25.28125 -36.21875 C 21.945312 -36.21875 19.117188 -35.054688 16.796875 -32.734375 C 14.460938 -30.148438 13.328125 -27.320312 13.390625 -24.25 C 13.390625 -20.914062 14.554688 -18.082031 16.890625 -15.75 C 19.210938 -13.425781 22.039062 -12.265625 25.375 -12.265625 C 28.769531 -12.390625 31.597656 -13.582031 33.859375 -15.84375 Z M 33.859375 -15.84375 "/></g></g></g><g fill="#ffffff" fill-opacity="1"><g transform="translate(310.481391, 225.123857)"><g><path d="M 16.03125 -41.3125 C 17.101562 -44.332031 18.894531 -46.441406 21.40625 -47.640625 C 23.863281 -48.828125 27.546875 -49.421875 32.453125 -49.421875 L 32.453125 -35.9375 C 27.671875 -35.9375 23.675781 -34.300781 20.46875 -31.03125 C 17.507812 -28.132812 16.03125 -24.957031 16.03125 -21.5 L 16.03125 0 L 2.828125 0 L 2.828125 -48.578125 L 16.03125 -48.578125 Z M 16.03125 -41.3125 "/></g></g></g><g fill="#48faaa" fill-opacity="1"><g transform="translate(344.334543, 225.123857)"><g><path d="M 16.03125 0 L 2.828125 0 L 2.828125 -13.203125 L 16.03125 -13.203125 Z M 16.03125 0 "/></g></g></g><g clip-path="url(#bb7952e99e)"><path fill="#ffffff" d="M 121.988281 164.417969 C 120.371094 164.585938 118.765625 164.820312 117.167969 165.125 C 115.570312 165.429688 113.988281 165.800781 112.421875 166.242188 C 110.855469 166.679688 109.3125 167.183594 107.789062 167.757812 C 106.265625 168.328125 104.769531 168.964844 103.300781 169.664062 C 101.832031 170.363281 100.398438 171.121094 98.992188 171.945312 C 97.589844 172.765625 96.222656 173.648438 94.894531 174.585938 C 93.566406 175.523438 92.277344 176.515625 91.035156 177.566406 C 89.789062 178.613281 88.589844 179.714844 87.441406 180.863281 C 86.289062 182.015625 85.191406 183.214844 84.140625 184.457031 C 83.09375 185.703125 82.097656 186.988281 81.160156 188.320312 C 80.222656 189.648438 79.339844 191.015625 78.519531 192.421875 C 77.695312 193.824219 76.933594 195.261719 76.234375 196.734375 C 75.535156 198.203125 74.898438 199.699219 74.324219 201.222656 C 73.75 202.75 73.246094 204.292969 72.804688 205.863281 C 72.363281 207.429688 71.988281 209.011719 71.683594 210.613281 C 71.378906 212.210938 71.140625 213.820312 70.96875 215.441406 C 70.800781 213.820312 70.5625 212.210938 70.257812 210.613281 C 69.953125 209.011719 69.578125 207.429688 69.136719 205.863281 C 68.695312 204.292969 68.1875 202.75 67.617188 201.222656 C 67.042969 199.699219 66.40625 198.203125 65.707031 196.734375 C 65.007812 195.261719 64.246094 193.824219 63.421875 192.421875 C 62.601562 191.015625 61.71875 189.648438 60.78125 188.320312 C 59.839844 186.988281 58.847656 185.703125 57.800781 184.457031 C 56.75 183.214844 55.652344 182.015625 54.5 180.863281 C 53.347656 179.714844 52.152344 178.613281 50.90625 177.566406 C 49.664062 176.515625 48.375 175.523438 47.046875 174.585938 C 45.71875 173.648438 44.351562 172.765625 42.949219 171.945312 C 41.542969 171.121094 40.109375 170.363281 38.640625 169.664062 C 37.171875 168.964844 35.675781 168.328125 34.152344 167.757812 C 32.628906 167.183594 31.085938 166.679688 29.519531 166.242188 C 27.953125 165.800781 26.371094 165.429688 24.773438 165.125 C 23.175781 164.820312 21.570312 164.585938 19.949219 164.417969 C 19.757812 166.28125 19.660156 168.152344 19.652344 170.027344 C 19.644531 171.902344 19.726562 173.773438 19.902344 175.640625 C 20.078125 177.507812 20.34375 179.363281 20.703125 181.203125 C 21.058594 183.042969 21.503906 184.863281 22.039062 186.660156 C 22.578125 188.457031 23.199219 190.222656 23.90625 191.957031 C 24.617188 193.691406 25.410156 195.390625 26.285156 197.046875 C 27.160156 198.703125 28.113281 200.316406 29.148438 201.878906 C 30.179688 203.441406 31.289062 204.953125 32.46875 206.40625 C 33.652344 207.863281 34.902344 209.253906 36.21875 210.585938 C 37.539062 211.917969 38.917969 213.183594 40.359375 214.378906 C 41.800781 215.574219 43.300781 216.695312 44.851562 217.746094 C 46.40625 218.792969 48.003906 219.765625 49.652344 220.65625 C 51.300781 221.546875 52.988281 222.355469 54.714844 223.082031 C 56.441406 223.804688 58.199219 224.445312 59.988281 224.996094 C 61.777344 225.550781 63.589844 226.011719 65.425781 226.386719 C 67.257812 226.761719 69.109375 227.042969 70.96875 227.234375 C 72.832031 227.042969 74.683594 226.761719 76.515625 226.386719 C 78.351562 226.011719 80.164062 225.550781 81.953125 224.996094 C 83.742188 224.445312 85.5 223.804688 87.226562 223.082031 C 88.953125 222.355469 90.640625 221.546875 92.289062 220.65625 C 93.9375 219.765625 95.535156 218.792969 97.089844 217.746094 C 98.640625 216.695312 100.136719 215.574219 101.582031 214.378906 C 103.023438 213.183594 104.402344 211.917969 105.722656 210.585938 C 107.039062 209.253906 108.289062 207.863281 109.46875 206.40625 C 110.652344 204.953125 111.757812 203.441406 112.792969 201.878906 C 113.828125 200.316406 114.78125 198.703125 115.65625 197.046875 C 116.53125 195.390625 117.324219 193.691406 118.03125 191.957031 C 118.742188 190.222656 119.363281 188.457031 119.898438 186.660156 C 120.4375 184.863281 120.882812 183.042969 121.238281 181.203125 C 121.597656 179.363281 121.863281 177.507812 122.039062 175.640625 C 122.214844 173.773438 122.296875 171.902344 122.289062 170.027344 C 122.28125 168.152344 122.179688 166.28125 121.988281 164.417969 Z M 121.988281 164.417969 " fill-opacity="1" fill-rule="nonzero"/></g><g clip-path="url(#e13c687dec)"><path fill="#48faaa" d="M 83.835938 161.078125 C 83.835938 161.957031 83.75 162.824219 83.574219 163.683594 C 83.402344 164.542969 83.144531 165.375 82.800781 166.1875 C 82.460938 166.996094 82.042969 167.765625 81.546875 168.492188 C 81.050781 169.222656 80.488281 169.894531 79.855469 170.515625 C 79.222656 171.132812 78.539062 171.6875 77.796875 172.175781 C 77.054688 172.660156 76.269531 173.070312 75.445312 173.40625 C 74.621094 173.742188 73.773438 173.996094 72.898438 174.167969 C 72.019531 174.335938 71.136719 174.421875 70.246094 174.421875 C 69.351562 174.421875 68.46875 174.335938 67.59375 174.167969 C 66.71875 173.996094 65.867188 173.742188 65.042969 173.40625 C 64.21875 173.070312 63.4375 172.660156 62.695312 172.175781 C 61.953125 171.6875 61.265625 171.132812 60.632812 170.515625 C 60.003906 169.894531 59.441406 169.222656 58.945312 168.492188 C 58.449219 167.765625 58.03125 166.996094 57.6875 166.1875 C 57.347656 165.375 57.089844 164.542969 56.914062 163.683594 C 56.742188 162.824219 56.652344 161.957031 56.652344 161.078125 C 56.652344 160.203125 56.742188 159.335938 56.914062 158.476562 C 57.089844 157.617188 57.347656 156.78125 57.6875 155.972656 C 58.03125 155.164062 58.449219 154.394531 58.945312 153.667969 C 59.441406 152.9375 60.003906 152.261719 60.632812 151.644531 C 61.265625 151.023438 61.953125 150.472656 62.695312 149.984375 C 63.4375 149.496094 64.21875 149.085938 65.042969 148.75 C 65.867188 148.417969 66.71875 148.164062 67.59375 147.992188 C 68.46875 147.820312 69.351562 147.734375 70.246094 147.734375 C 71.136719 147.734375 72.019531 147.820312 72.898438 147.992188 C 73.773438 148.164062 74.621094 148.417969 75.445312 148.75 C 76.269531 149.085938 77.054688 149.496094 77.796875 149.984375 C 78.539062 150.472656 79.222656 151.023438 79.855469 151.644531 C 80.488281 152.261719 81.050781 152.9375 81.546875 153.667969 C 82.042969 154.394531 82.460938 155.164062 82.800781 155.972656 C 83.144531 156.78125 83.402344 157.617188 83.574219 158.476562 C 83.75 159.335938 83.835938 160.203125 83.835938 161.078125 Z M 83.835938 161.078125 " fill-opacity="1" fill-rule="nonzero"/></g></svg>